{
  "accessors": [
    {
      "bufferView": 2,
      "componentType": 5126,
      "count": 1781,
      "max": [
        1.7310589551925659,
        -2.5895609855651855,
        -0.14340700209140778
      ],
      "min": [
        -1.723114013671875,
        -2.5908889770507812,
        -0.56601798534393311
      ],
      "type": "VEC3"
    },
    {
      "bufferView": 2,
      "byteOffset": 21372,
      "componentType": 5126,
      "count": 1781,
      "max": [
        0.16990579664707184,
        -0.98383355140686035,
        0.084501735866069794
      ],
      "min": [
        -0.16990675032138824,
        -0.99999856948852539,
        -0.083997093141078949
      ],
      "type": "VEC3"
    },
    {
      "bufferView": 1,
      "componentType": 5126,
      "count": 1781,
      "max": [
        0.72451299428939819,
        0.83453100919723511
      ],
      "min": [
        0.57407999038696289,
        0.80136299133300781
      ],
      "type": "VEC2"
    },
    {
      "bufferView": 0,
      "componentType": 5125,
      "count": 8448,
      "max": [
        1780
      ],
      "min": [
        0
      ],
      "type": "SCALAR"
    },
    {
      "bufferView": 2,
      "byteOffset": 42744,
      "componentType": 5126,
      "count": 7862,
      "max": [
        0.36567598581314087,
        0.23051999509334564,
        -0.040314000099897385
      ],
      "min": [
        -0.35789498686790466,
        -0.095944002270698547,
        -0.18346400558948517
      ],
      "type": "VEC3"
    },
    {
      "bufferView": 2,
      "byteOffset": 137088,
      "componentType": 5126,
      "count": 7862,
      "max": [
        0.50551486015319824,
        0.21560038626194,
        0.9659770131111145
      ],
      "min": [
        0.17539897561073303,
        -0.21560761332511902,
        -0.9659770131111145
      ],
      "type": "VEC3"
    },
    {
      "bufferView": 3,
      "componentType": 5126,
      "count": 7862,
      "max": [
        0.97106754779815674,
        0.98207330703735352,
        0.4496842622756958,
        1
      ],
      "min": [
        -0.97130066156387329,
        -0.74453634023666382,
        -0.39769977331161499,
        -1
      ],
      "type": "VEC4"
    },
    {
      "bufferView": 1,
      "byteOffset": 14248,
      "componentType": 5126,
      "count": 7862,
      "max": [
        0.67675900459289551,
        0.77267402410507202
      ],
      "min": [
        0.009424000047147274,
        0.40108600258827209
      ],
      "type": "VEC2"
    },
    {
      "bufferView": 0,
      "byteOffset": 33792,
      "componentType": 5125,
      "count": 44544,
      "max": [
        7861
      ],
      "min": [
        0
      ],
      "type": "SCALAR"
    },
    {
      "bufferView": 2,
      "byteOffset": 231432,
      "componentType": 5126,
      "count": 65532,
      "max": [
        1.2980760335922241,
        5.2488770484924316,
        0.066697001457214355
      ],
      "min": [
        -2.0364201068878174,
        -3.271773099899292,
        -0.65653198957443237
      ],
      "type": "VEC3"
    },
    {
      "bufferView": 2,
      "byteOffset": 1017816,
      "componentType": 5126,
      "count": 65532,
      "max": [
        1,
        1,
        1
      ],
      "min": [
        -1,
        -0.99999606609344482,
        -1
      ],
      "type": "VEC3"
    },
    {
      "bufferView": 3,
      "byteOffset": 125792,
      "componentType": 5126,
      "count": 65532,
      "max": [
        1,
        1,
        1,
        1
      ],
      "min": [
        -1,
        -1,
        -0.99999547004699707,
        -1
      ],
      "type": "VEC4"
    },
    {
      "bufferView": 1,
      "byteOffset": 77144,
      "componentType": 5126,
      "count": 65532,
      "max": [
        0.9954490065574646,
        0.99873298406600952
      ],
      "min": [
        0,
        0
      ],
      "type": "VEC2"
    },
    {
      "bufferView": 0,
      "byteOffset": 211968,
      "componentType": 5125,
      "count": 377463,
      "max": [
        65531
      ],
      "min": [
        0
      ],
      "type": "SCALAR"
    },
    {
      "bufferView": 2,
      "byteOffset": 1804200,
      "componentType": 5126,
      "count": 65532,
      "max": [
        1.7850519418716431,
        5.2489328384399414,
        0.066697001457214355
      ],
      "min": [
        -1.7272739410400391,
        -5.4627208709716797,
        -0.66992300748825073
      ],
      "type": "VEC3"
    },
    {
      "bufferView": 2,
      "byteOffset": 2590584,
      "componentType": 5126,
      "count": 65532,
      "max": [
        1,
        1,
        1
      ],
      "min": [
        -1,
        -0.9999992847442627,
        -1
      ],
      "type": "VEC3"
    },
    {
      "bufferView": 3,
      "byteOffset": 1174304,
      "componentType": 5126,
      "count": 65532,
      "max": [
        1,
        1,
        1,
        1
      ],
      "min": [
        -1,
        -1,
        -1,
        -1
      ],
      "type": "VEC4"
    },
    {
      "bufferView": 1,
      "byteOffset": 601400,
      "componentType": 5126,
      "count": 65532,
      "max": [
        0.99712800979614258,
        0.99660301208496094
      ],
      "min": [
        0,
        0
      ],
      "type": "VEC2"
    },
    {
      "bufferView": 0,
      "byteOffset": 1721820,
      "componentType": 5125,
      "count": 368757,
      "max": [
        65531
      ],
      "min": [
        0
      ],
      "type": "SCALAR"
    },
    {
      "bufferView": 2,
      "byteOffset": 3376968,
      "componentType": 5126,
      "count": 43850,
      "max": [
        2.0284159183502197,
        5.248283863067627,
        0.019027000293135643
      ],
      "min": [
        -1.9875940084457397,
        -5.4627208709716797,
        -0.66522598266601562
      ],
      "type": "VEC3"
    },
    {
      "bufferView": 2,
      "byteOffset": 3903168,
      "componentType": 5126,
      "count": 43850,
      "max": [
        0.99999988079071045,
        0.99999797344207764,
        0.99999988079071045
      ],
      "min": [
        -0.99999988079071045,
        -0.99999916553497314,
        -0.99999988079071045
      ],
      "type": "VEC3"
    },
    {
      "bufferView": 3,
      "byteOffset": 2222816,
      "componentType": 5126,
      "count": 43850,
      "max": [
        1,
        0.99972307682037354,
        1,
        1
      ],
      "min": [
        -1,
        -0.99995243549346924,
        -1,
        -1
      ],
      "type": "VEC4"
    },
    {
      "bufferView": 1,
      "byteOffset": 1125656,
      "componentType": 5126,
      "count": 43850,
      "max": [
        0.98852002620697021,
        0.99873298406600952
      ],
      "min": [
        0,
        0
      ],
      "type": "VEC2"
    },
    {
      "bufferView": 0,
      "byteOffset": 3196848,
      "componentType": 5125,
      "count": 245460,
      "max": [
        43849
      ],
      "min": [
        0
      ],
      "type": "SCALAR"
    }
  ],
  "asset": {
    "extras": {
      "author": "hobbit84 (https://sketchfab.com/hobbit84)",
      "license": "CC-BY-NC-4.0 (http://creativecommons.org/licenses/by-nc/4.0/)",
      "source": "https://sketchfab.com/3d-models/naboo-royal-starship-j-type-327-nubian-f631077977754b5591298ecfa201380b",
      "title": "Naboo Royal Starship (J-type 327 Nubian)"
    },
    "generator": "Sketchfab-9.72.0",
    "version": "2.0"
  },
  "bufferViews": [
    {
      "buffer": 0,
      "byteLength": 4178688,
      "byteOffset": 0,
      "name": "floatBufferViews",
      "target": 34963
    },
    {
      "buffer": 0,
      "byteLength": 1476456,
      "byteOffset": 4178688,
      "byteStride": 8,
      "name": "floatBufferViews",
      "target": 34962
    },
    {
      "buffer": 0,
      "byteLength": 4429368,
      "byteOffset": 5655144,
      "byteStride": 12,
      "name": "floatBufferViews",
      "target": 34962
    },
    {
      "buffer": 0,
      "byteLength": 2924416,
      "byteOffset": 10084512,
      "byteStride": 16,
      "name": "floatBufferViews",
      "target": 34962
    }
  ],
  "buffers": [
    {
      "byteLength": 13008928,
      "uri": "scene.bin"
    }
  ],
  "images": [
    {
      "uri": "textures/aiwindow.002_baseColor.png"
    },
    {
      "uri": "textures/aiwindow.002_metallicRoughness.png"
    },
    {
      "uri": "textures/aiwindow.002_normal.png"
    },
    {
      "uri": "textures/blinn1.002_baseColor.png"
    },
    {
      "uri": "textures/blinn1.002_metallicRoughness.png"
    },
    {
      "uri": "textures/blinn1.002_normal.png"
    }
  ],
  "materials": [
    {
      "doubleSided": true,
      "emissiveFactor": [
        0,
        0,
        0
      ],
      "name": "Material.002",
      "pbrMetallicRoughness": {
        "baseColorFactor": [
          0.80000000000000004,
          0.80000000000000004,
          0.80000000000000004,
          1
        ],
        "metallicFactor": 0,
        "roughnessFactor": 0.78803183755802242
      }
    },
    {
      "doubleSided": true,
      "emissiveFactor": [
        0,
        0,
        0
      ],
      "name": "aiwindow.002",
      "normalTexture": {
        "index": 2,
        "scale": 1,
        "texCoord": 0
      },
      "pbrMetallicRoughness": {
        "baseColorFactor": [
          1,
          1,
          1,
          1
        ],
        "baseColorTexture": {
          "index": 0,
          "texCoord": 0
        },
        "metallicFactor": 1,
        "metallicRoughnessTexture": {
          "index": 1,
          "texCoord": 0
        },
        "roughnessFactor": 0.59999999999999998
      }
    },
    {
      "doubleSided": true,
      "emissiveFactor": [
        0,
        0,
        0
      ],
      "name": "blinn1.002",
      "normalTexture": {
        "index": 5,
        "scale": 1,
        "texCoord": 0
      },
      "pbrMetallicRoughness": {
        "baseColorFactor": [
          1,
          1,
          1,
          1
        ],
        "baseColorTexture": {
          "index": 3,
          "texCoord": 0
        },
        "metallicFactor": 1,
        "metallicRoughnessTexture": {
          "index": 4,
          "texCoord": 0
        },
        "roughnessFactor": 0.59999999999999998
      }
    }
  ],
  "meshes": [
    {
      "primitives": [
        {
          "attributes": {
            "NORMAL": 1,
            "POSITION": 0,
            "TEXCOORD_0": 2
          },
          "indices": 3,
          "material": 0,
          "mode": 4
        }
      ]
    },
    {
      "primitives": [
        {
          "attributes": {
            "NORMAL": 5,
            "POSITION": 4,
            "TANGENT": 6,
            "TEXCOORD_0": 7
          },
          "indices": 8,
          "material": 1,
          "mode": 4
        }
      ]
    },
    {
      "primitives": [
        {
          "attributes": {
            "NORMAL": 10,
            "POSITION": 9,
            "TANGENT": 11,
            "TEXCOORD_0": 12
          },
          "indices": 13,
          "material": 2,
          "mode": 4
        }
      ]
    },
    {
      "primitives": [
        {
          "attributes": {
            "NORMAL": 15,
            "POSITION": 14,
            "TANGENT": 16,
            "TEXCOORD_0": 17
          },
          "indices": 18,
          "material": 2,
          "mode": 4
        }
      ]
    },
    {
      "primitives": [
        {
          "attributes": {
            "NORMAL": 20,
            "POSITION": 19,
            "TANGENT": 21,
            "TEXCOORD_0": 22
          },
          "indices": 23,
          "material": 2,
          "mode": 4
        }
      ]
    }
  ],
  "nodes": [
    {
      "children": [
        1
      ],
      "name": "RootNode (gltf orientation matrix)",
      "rotation": [
        -0.70710678118654746,
        -0,
        -0,
        0.70710678118654757
      ]
    },
    {
      "children": [
        2
      ],
      "matrix": [
        -1,
        -1.7853747624282703e-32,
        -2.832769343193999e-16,
        0,
        -2.770065955897755e-32,
        -1,
        1.6081226229577292e-16,
        0,
        -2.832769343193999e-16,
        1.6081226229577292e-16,
        1,
        0,
        -0.0080063343048095703,
        -0.21378660202026367,
        0,
        1
      ],
      "name": "RootNode (model correction matrix)"
    },
    {
      "children": [
        3,
        4,
        5,
        6,
        7
      ],
      "name": "J-type 327.obj.cleaner.materialmerger.gles"
    },
    {
      "mesh": 0,
      "name": ""
    },
    {
      "mesh": 1,
      "name": ""
    },
    {
      "mesh": 2,
      "name": ""
    },
    {
      "mesh": 3,
      "name": ""
    },
    {
      "mesh": 4,
      "name": ""
    }
  ],
  "samplers": [
    {
      "magFilter": 9729,
      "minFilter": 9987,
      "wrapS": 10497,
      "wrapT": 10497
    }
  ],
  "scene": 0,
  "scenes": [
    {
      "name": "OSG_Scene",
      "nodes": [
        0
      ]
    }
  ],
  "textures": [
    {
      "sampler": 0,
      "source": 0
    },
    {
      "sampler": 0,
      "source": 1
    },
    {
      "sampler": 0,
      "source": 2
    },
    {
      "sampler": 0,
      "source": 3
    },
    {
      "sampler": 0,
      "source": 4
    },
    {
      "sampler": 0,
      "source": 5
    }
  ]
}

